<svg width="64" height="61" viewBox="0 0 64 61" fill="none" xmlns="http://www.w3.org/2000/svg">
<path d="M19.774 24.888V25.576H33.758V24.888H19.774ZM23.662 23.672V27.048H24.366V23.672H23.662ZM29.054 23.672V26.888H29.758V23.672H29.054ZM19.694 32.904V33.576H33.838V32.904H19.694ZM26.334 31.56V38.184H27.07V31.56H26.334ZM25.902 33.144C24.494 34.888 21.742 36.552 19.374 37.288C19.566 37.432 19.774 37.704 19.886 37.912C22.238 37.08 25.006 35.336 26.494 33.432L25.902 33.144ZM27.55 33.192L26.958 33.464C28.382 35.352 31.134 36.984 33.55 37.752C33.662 37.56 33.886 37.272 34.062 37.112C31.614 36.472 28.91 34.92 27.55 33.192ZM31.758 26.792C29.262 27.4 24.27 27.768 20.318 27.896C20.382 28.056 20.478 28.344 20.494 28.52C24.51 28.408 29.486 28.024 32.35 27.352L31.758 26.792ZM21.07 29.4C21.71 30.136 22.35 31.144 22.574 31.864L23.214 31.544C22.99 30.856 22.334 29.848 21.678 29.128L21.07 29.4ZM25.454 28.936C25.934 29.688 26.366 30.68 26.478 31.32L27.166 31.08C27.038 30.424 26.59 29.464 26.094 28.728L25.454 28.936ZM31.934 28.552C31.486 29.512 30.622 30.952 29.966 31.768L30.51 32.056C31.182 31.224 32.014 29.912 32.654 28.84L31.934 28.552ZM42.334 26.776V38.184H43.07V26.776H42.334ZM37.934 29.864H47.662V32.008H37.934V29.864ZM37.934 27.112H47.662V29.224H37.934V27.112ZM37.246 26.456V32.648H48.398V26.456H37.246ZM35.662 34.472V35.16H49.854V34.472H35.662ZM38.718 24.04C39.39 24.792 40.126 25.832 40.462 26.488L41.07 26.136C40.75 25.48 39.982 24.488 39.31 23.736L38.718 24.04ZM46.382 23.704C45.934 24.6 45.102 25.88 44.478 26.664L45.054 26.936C45.694 26.168 46.494 24.984 47.118 23.992L46.382 23.704Z" fill="white"/>
<path d="M34.4774 8.30831L38.8291 0.604837L39.6407 0.900218L38.9724 2.07185L39.0471 2.09906C39.4372 1.7694 39.888 1.56064 40.3997 1.47276C40.9127 1.38133 41.4379 1.43343 41.9754 1.62905C42.552 1.83893 42.9488 2.13856 43.1659 2.52794C43.3878 2.91505 43.4606 3.3628 43.3844 3.87119L43.4538 3.89645C43.8691 3.51955 44.3598 3.27892 44.9258 3.17456C45.4932 3.06664 46.0776 3.12215 46.6792 3.3411C47.448 3.62093 47.9199 4.0688 48.0948 4.6847C48.2732 5.3019 48.1245 6.03178 47.6485 6.87435L44.7286 12.0394L43.8903 11.7343L46.8103 6.56925C47.158 5.94606 47.2637 5.41212 47.1272 4.96742C46.9921 4.51917 46.6362 4.1901 46.0596 3.98023C45.4118 3.74444 44.8046 3.75122 44.2382 4.00056C43.6731 4.24635 43.2287 4.65899 42.9049 5.2385L40.0248 10.3274L39.1812 10.0204L42.1371 4.78974C42.4434 4.23611 42.5398 3.73307 42.4263 3.28062C42.3142 2.82461 41.9609 2.48842 41.3665 2.27207C40.9678 2.12697 40.5626 2.08834 40.151 2.15618C39.7393 2.22402 39.3563 2.3849 39.0018 2.63884C38.6487 2.88922 38.3568 3.22036 38.1263 3.63226L35.3103 8.61146L34.4774 8.30831Z" fill="white"/>
<path d="M48.5792 14.746C48.0242 14.1656 47.7031 13.5529 47.6157 12.908C47.5311 12.2604 47.6604 11.6284 48.0037 11.0118C48.3498 10.3927 48.8915 9.8328 49.6287 9.33224C50.3606 8.83156 51.1222 8.50167 51.9134 8.34256C52.71 8.18358 53.4678 8.19787 54.187 8.38543C54.9088 8.57574 55.5262 8.93919 56.0393 9.47578C56.3691 9.82073 56.6097 10.2039 56.761 10.6252C56.9123 11.0465 56.9561 11.4842 56.8924 11.9382C56.8312 12.395 56.647 12.8463 56.3396 13.2922C56.035 13.7355 55.5902 14.1582 55.0052 14.5603L54.6054 14.8247L49.8698 9.87212L50.5309 9.42076L54.6461 13.7245C55.1385 13.3899 55.5008 13.0042 55.733 12.5673C55.9679 12.1278 56.0583 11.6798 56.0042 11.2231C55.9527 10.7692 55.7411 10.3479 55.3694 9.95909C54.9924 9.56486 54.5216 9.29712 53.9568 9.15588C53.3973 9.01476 52.815 8.99502 52.21 9.09667C51.6102 9.19845 51.0616 9.41388 50.5639 9.74299L50.1069 10.0542C49.4865 10.4797 49.0384 10.9292 48.7626 11.4025C48.4867 11.8759 48.3876 12.3559 48.4651 12.8426C48.5452 13.332 48.8078 13.8094 49.2528 14.2748C49.5539 14.5896 49.8755 14.8246 50.2176 14.9796C50.5651 15.1347 50.9073 15.2268 51.2442 15.2557C51.5811 15.2847 51.8895 15.2702 52.1695 15.2122L52.4941 15.9709C52.1221 16.0698 51.7089 16.1007 51.2542 16.0637C50.7996 16.0268 50.3403 15.9026 49.8761 15.6913C49.4147 15.4827 48.9823 15.1676 48.5792 14.746Z" fill="white"/>
<path d="M57.5897 18.116L52.1246 19.3834L51.7854 18.5645L60.405 16.5686L60.7355 17.3664L59.3782 17.6827L59.4087 17.7562C59.9295 17.8356 60.4076 18.0496 60.8431 18.3981C61.2835 18.7487 61.6247 19.2162 61.8668 19.8006C62.09 20.3396 62.1647 20.8416 62.0909 21.3068C62.0186 21.7755 61.7987 22.1802 61.4315 22.5209C61.0642 22.8616 60.5516 23.1088 59.8936 23.2624L54.2685 24.5592L53.9293 23.7403L59.5007 22.4474C60.214 22.279 60.7057 21.9564 60.9756 21.4797C61.2505 21.0051 61.2553 20.4475 60.99 19.8071C60.8103 19.3732 60.5491 19.0099 60.2065 18.7172C59.8638 18.4245 59.4664 18.2222 59.0141 18.1102C58.5668 18.0003 58.092 18.0022 57.5897 18.116Z" fill="white"/>
<path d="M58.2443 32.6484L63.7273 33.5632V34.4496L55 32.995V32.1087L56.4375 32.3473V32.2791C55.9867 32.0064 55.6155 31.6181 55.3239 31.1143C55.0322 30.6143 54.8864 30.0481 54.8864 29.4155C54.8864 28.8511 55.0095 28.3719 55.2557 27.978C55.5019 27.584 55.8598 27.3018 56.3295 27.1314C56.7992 26.9647 57.3674 26.9363 58.0341 27.0462L63.7273 28.0007V28.8871L58.0852 27.9496C57.3845 27.8359 56.8201 27.9515 56.392 28.2962C55.964 28.6409 55.75 29.1428 55.75 29.8018C55.75 30.2185 55.8466 30.6276 56.0398 31.0291C56.2367 31.4344 56.5208 31.7829 56.892 32.0746C57.2633 32.37 57.714 32.5613 58.2443 32.6484Z" fill="white"/>
<path d="M51.7962 44.8745L53.809 53.42L53.1943 54.0347L50.8038 44.083L51.294 43.5928L59.1645 48.0645L58.5579 48.6711L51.7962 44.8745ZM58.7346 48.4944L53.5921 41.2947L54.2188 40.668L59.3614 47.8676L58.7346 48.4944ZM48.5057 46.3811L53.6483 53.5807L53.0215 54.2075L47.8789 47.0078L48.5057 46.3811Z" fill="white"/>
<path d="M43.9979 48.6357C44.7398 48.3284 45.4272 48.2507 46.0601 48.4027C46.6943 48.5581 47.2367 48.9074 47.6872 49.4506C48.1392 49.9973 48.4651 50.7049 48.6649 51.5733C48.8667 52.4368 48.8987 53.2661 48.7606 54.0613C48.6206 54.8614 48.333 55.5627 47.8978 56.1653C47.4592 56.7692 46.897 57.2133 46.211 57.4974C45.7701 57.68 45.3259 57.7657 44.8783 57.7542C44.4308 57.7428 44.007 57.6252 43.6068 57.4015C43.2031 57.1792 42.8491 56.8441 42.5446 56.3962C42.2417 55.9518 42.0086 55.3841 41.8454 54.6932L41.7437 54.2249L48.0743 51.6027L48.2558 52.3823L42.7546 54.6611C42.8883 55.2412 43.1167 55.7185 43.4399 56.093C43.7646 56.471 44.1496 56.7174 44.5949 56.8323C45.0366 56.9486 45.506 56.9038 46.0029 56.698C46.5069 56.4893 46.9269 56.1472 47.2629 55.6718C47.597 55.2013 47.8261 54.6657 47.9503 54.0648C48.0725 53.4689 48.0702 52.8795 47.9435 52.2965L47.8188 51.7577C47.6466 51.0254 47.3898 50.4451 47.0484 50.0166C46.7069 49.5882 46.2953 49.322 45.8136 49.2181C45.3284 49.1157 44.7883 49.1877 44.1934 49.4342C43.7909 49.6009 43.4555 49.8156 43.1872 50.0785C42.9169 50.3463 42.7072 50.632 42.5582 50.9355C42.4093 51.2391 42.3112 51.5319 42.264 51.8139L41.4392 51.8419C41.4817 51.4594 41.6024 51.0629 41.8014 50.6525C42.0004 50.2421 42.2824 49.8588 42.6473 49.5026C43.0088 49.1479 43.459 48.8589 43.9979 48.6357Z" fill="white"/>
<path d="M32.3175 56.7784L32.4538 55.9375H37.7095L37.5732 56.7784H32.3175ZM36.6811 60.7273L38.13 52H39.0163L37.5675 60.7273H36.6811ZM31.0163 60.7273L32.4652 52H33.3516L31.9027 60.7273H31.0163Z" fill="white"/>
<path d="M25.0723 53.8084L25.5201 53.0837L29.4413 54.7079L28.9935 55.4327L25.0723 53.8084ZM26.1352 58.6213L30.8189 51.115L31.6482 51.4586L26.9594 58.9627L26.1352 58.6213ZM24.92 48.4748C25.6059 48.7589 26.1111 49.1773 26.4357 49.73C26.7568 50.2811 26.8856 50.9105 26.8221 51.6181C26.7571 52.3292 26.4861 53.0677 26.009 53.8336C25.5362 54.5889 24.9688 55.1965 24.3069 55.6562C23.645 56.1159 22.9486 56.4015 22.2178 56.5128C21.487 56.6242 20.7821 56.5393 20.1032 56.2581C19.4173 55.974 18.9128 55.5538 18.5896 54.9977C18.265 54.445 18.1352 53.8132 18.2002 53.1021C18.2616 52.3895 18.5309 51.6503 19.008 50.8845C19.4829 50.1341 20.0512 49.529 20.7131 49.0693C21.3736 48.6131 22.0693 48.3293 22.8001 48.2179C23.5309 48.1065 24.2375 48.1922 24.92 48.4748ZM24.5093 49.1842C23.9424 48.9493 23.3694 48.8924 22.7904 49.0134C22.2064 49.1364 21.6567 49.3945 21.1412 49.7878C20.6243 50.1846 20.1821 50.6779 19.8148 51.2678C19.4553 51.8487 19.2337 52.4232 19.1501 52.9913C19.063 53.5579 19.1289 54.0669 19.3478 54.5184C19.5667 54.9699 19.9544 55.3108 20.5108 55.5413C21.0742 55.7747 21.6479 55.8299 22.2318 55.7069C22.8123 55.5824 23.3627 55.3225 23.8832 54.9272C24.4001 54.5304 24.8416 54.0388 25.2075 53.4524C25.5705 52.8729 25.7955 52.2999 25.8826 51.7333C25.9662 51.1652 25.8968 50.6547 25.6744 50.2018C25.4506 49.7524 25.0622 49.4132 24.5093 49.1842Z" fill="white"/>
<path d="M15.6743 37.81C15.9315 38.4309 16.0993 39.031 16.1776 39.6105C16.2618 40.176 16.2455 40.7081 16.1288 41.2067C16.012 41.7053 15.7768 42.1549 15.4232 42.5554C15.0654 42.946 14.5811 43.2679 13.9701 43.5209C13.8518 43.5699 13.6486 43.6368 13.3604 43.7215C13.0682 43.7964 12.7004 43.8563 12.2573 43.9014C11.8042 43.9505 11.2881 43.9449 10.709 43.8846L10.7475 43.1413C11.051 43.1772 11.3652 43.1971 11.6901 43.2011C12.0011 43.1993 12.3138 43.1737 12.6281 43.1243C12.9425 43.0749 13.2524 42.9869 13.5579 42.8604C14.0999 42.6359 14.5194 42.3525 14.8163 42.0101C15.1091 41.6579 15.2946 41.2694 15.3726 40.8445C15.4564 40.4057 15.4537 39.9392 15.3644 39.4451C15.2752 38.951 15.1245 38.4477 14.9122 37.9352C14.7081 37.4425 14.4576 36.9632 14.1608 36.4973C13.8598 36.0216 13.512 35.6 13.1172 35.2324C12.7225 34.8648 12.2804 34.5919 11.791 34.4136C11.3015 34.2353 10.7563 34.2014 10.1555 34.3117C9.90024 34.3366 9.62854 34.3914 9.34036 34.4762C9.04233 34.565 8.75534 34.6665 8.47941 34.7808C7.92755 35.0094 7.45353 35.2866 7.05736 35.6123C6.66119 35.9381 6.38313 36.2841 6.22319 36.6506C6.05916 37.0072 6.04654 37.353 6.18532 37.688C6.29145 37.9443 6.50887 38.1486 6.83758 38.3011C7.16221 38.4437 7.52963 38.5224 7.93986 38.5372C8.34023 38.5561 8.7178 38.4921 9.07257 38.3452C9.42734 38.1982 9.6747 38.0149 9.81465 37.7953C9.94474 37.5798 9.99614 37.3276 9.96884 37.0387C9.9317 36.7539 9.84577 36.4489 9.71107 36.1237C9.5682 35.7788 9.39696 35.463 9.19735 35.1762C8.99367 34.8795 8.79969 34.6482 8.61542 34.482L9.18221 34.178C9.43785 34.3492 9.6716 34.593 9.88345 34.9093C10.0854 35.2297 10.2599 35.5673 10.4069 35.9221C10.5783 36.336 10.6813 36.7378 10.7157 37.1277C10.7461 37.5076 10.6711 37.8562 10.4908 38.1734C10.3104 38.4905 9.98373 38.7471 9.51071 38.943C9.16579 39.0859 8.78653 39.1737 8.37292 39.2065C7.95931 39.2392 7.5569 39.2154 7.16568 39.135C6.77447 39.0546 6.42605 38.9103 6.12043 38.7021C5.81073 38.484 5.58853 38.2123 5.45383 37.8871C5.25381 37.4042 5.25891 36.9288 5.46912 36.4607C5.66539 35.9868 6.00765 35.5449 6.4959 35.1348C6.98414 34.7248 7.56825 34.3789 8.24822 34.0973C8.60299 33.9503 8.96797 33.828 9.34315 33.7303C9.71833 33.6326 10.0782 33.5817 10.4229 33.5775C11.1016 33.5157 11.7196 33.6003 12.2771 33.8312C12.8346 34.0621 13.3278 34.3889 13.7569 34.8116C14.186 35.2342 14.5562 35.7101 14.8678 36.2391C15.185 36.7542 15.4539 37.2779 15.6743 37.81ZM3.34173 37.9307C3.40296 38.0785 3.40675 38.227 3.35311 38.3763C3.29538 38.5156 3.19261 38.6159 3.04479 38.6772C2.90682 38.7343 2.76815 38.734 2.62879 38.6763C2.47548 38.6128 2.36822 38.5071 2.30699 38.3593C2.24576 38.2115 2.24893 38.0659 2.31652 37.9224C2.37424 37.783 2.47209 37.6848 2.61006 37.6276C2.75788 37.5664 2.90351 37.5696 3.04696 37.6372C3.18633 37.6949 3.28459 37.7927 3.34173 37.9307ZM4.05812 39.6602C4.11935 39.808 4.12314 39.9565 4.06949 40.1058C4.01176 40.2451 3.90899 40.3454 3.76117 40.4067C3.6232 40.4638 3.48454 40.4635 3.34517 40.4058C3.19187 40.3423 3.0846 40.2366 3.02337 40.0888C2.96622 39.9508 2.97144 39.8101 3.03902 39.6667C3.09267 39.5175 3.18847 39.4143 3.32644 39.3571C3.47426 39.2959 3.6199 39.2991 3.76335 39.3667C3.90271 39.4244 4.00097 39.5222 4.05812 39.6602Z" fill="white"/>
<path d="M11.9396 30.6237L0.517453 31.0042L0.513551 30.2682L11.9357 29.8877L11.9396 30.6237Z" fill="white"/>
<path d="M10.6504 26.8201C10.404 26.718 10.1559 26.5922 9.90619 26.4425C9.65067 26.279 9.38071 26.0806 9.09633 25.8473C8.81602 25.6042 8.51059 25.3103 8.18002 24.9655L8.70326 24.4549C8.93598 24.7014 9.17483 24.9331 9.41979 25.15C9.66476 25.3669 9.91008 25.5551 10.1557 25.7146C10.4055 25.8643 10.6437 25.986 10.8704 26.0799C11.3532 26.2799 11.7981 26.3487 12.2049 26.2863C12.6257 26.2182 13.0081 26.0475 13.3522 25.7744C13.7061 25.5053 14.0172 25.1724 14.2855 24.7755C14.5538 24.3787 14.7818 23.9536 14.9696 23.5002C15.288 22.7316 15.4789 22.0198 15.5423 21.3649C15.6058 20.71 15.5812 20.1283 15.4685 19.6198C15.3657 19.1154 15.2123 18.7055 15.0081 18.39C14.8081 18.0647 14.6046 17.8591 14.3976 17.7734C14.2202 17.6999 14.0238 17.7283 13.8082 17.8583C13.5869 17.9745 13.3531 18.1489 13.1066 18.3817C12.8601 18.6144 12.6075 18.8619 12.3487 19.1242C12.0801 19.3824 11.8058 19.6266 11.5256 19.857C11.2496 20.0775 10.9763 20.2356 10.7057 20.3313C10.4253 20.423 10.152 20.4137 9.88596 20.3035C9.5509 20.1647 9.24477 19.9282 8.96755 19.594C8.68457 19.2459 8.45564 18.8509 8.28076 18.409C8.10012 17.9532 7.99781 17.4894 7.97385 17.0176C7.94004 16.5418 8.00273 16.1117 8.16192 15.7274C8.3252 15.3332 8.51615 15.0255 8.73476 14.8043C8.95338 14.5832 9.13765 14.417 9.28757 14.306L9.76251 14.8317C9.59457 14.9584 9.42509 15.1307 9.25406 15.3485C9.07725 15.5523 8.93987 15.7725 8.8419 16.009C8.71944 16.3047 8.66885 16.6359 8.69013 17.0026C8.71141 17.3693 8.7852 17.7347 8.9115 18.0987C9.03203 18.4489 9.19063 18.7628 9.38732 19.0405C9.57823 19.3043 9.79687 19.4873 10.0432 19.5893C10.2305 19.6669 10.4397 19.6496 10.6708 19.5375C10.8962 19.4115 11.1371 19.2342 11.3934 19.0056C11.644 18.763 11.9056 18.5077 12.1783 18.2396C12.4509 17.9715 12.7253 17.7273 13.0013 17.5068C13.2815 17.2765 13.5568 17.1134 13.8274 17.0177C14.0922 16.908 14.3527 16.9062 14.6089 17.0124C14.9046 17.1348 15.1907 17.3919 15.4672 17.7835C15.7535 18.1792 15.9732 18.6801 16.1263 19.2861C16.2794 19.8922 16.3284 20.5821 16.2734 21.356C16.2184 22.1298 16.0052 22.9651 15.6337 23.8619C15.3888 24.4532 15.0941 24.9835 14.7497 25.4527C14.4052 25.9219 14.0183 26.2985 13.589 26.5825C13.1735 26.8607 12.7169 27.0295 12.2189 27.0888C11.7251 27.1382 11.2022 27.0486 10.6504 26.8201ZM7.26284 23.6677L6.69648 23.5717C6.74349 23.291 6.78198 23.0587 6.81195 22.8748C6.83615 22.677 6.86443 22.4694 6.8968 22.2519L7.19306 22.0802C6.9608 22.4458 6.65448 22.7115 6.27411 22.8772C5.89782 23.0331 5.54214 23.0416 5.20708 22.9028C4.941 22.7926 4.74088 22.6347 4.6067 22.429C4.47661 22.2135 4.41212 21.9789 4.41323 21.7254C4.40857 21.4579 4.45522 21.2059 4.55319 20.9694C4.60625 20.8413 4.66713 20.7222 4.73583 20.6121C4.8086 20.4922 4.88511 20.3911 4.96535 20.3089L5.40164 20.5935C5.33125 20.6798 5.26868 20.7751 5.21393 20.8794C5.1534 20.9698 5.10068 21.0692 5.05578 21.1776C4.92924 21.4831 4.90722 21.7453 4.98973 21.9642C5.06647 22.1692 5.20338 22.3125 5.40048 22.3941C5.60743 22.4798 5.82324 22.4884 6.04792 22.4198C6.26274 22.3472 6.46025 22.2327 6.64043 22.0764C6.81485 21.9062 6.9597 21.7238 7.07498 21.5291L6.90397 22.151C6.9452 21.8563 6.97827 21.5814 7.00317 21.3261C7.0223 21.057 7.03615 20.8145 7.04473 20.5987L7.57898 20.6468C7.56971 20.92 7.54699 21.2397 7.51083 21.6057C7.47876 21.9619 7.43972 22.3209 7.3937 22.6829C7.35177 23.0349 7.30815 23.3632 7.26284 23.6677Z" fill="white"/>
<path d="M20.769 20.3539C20.1659 19.8947 19.6029 19.4512 19.0799 19.0234C18.5651 18.5889 18.1122 18.1799 17.7209 17.7966C17.3363 17.4216 17.0336 17.097 16.8127 16.823C16.3909 16.2998 16.1416 15.7952 16.0648 15.309C15.9964 14.8162 16.0496 14.3554 16.2246 13.9266C16.3995 13.4978 16.6579 13.1045 16.9998 12.7467C17.3499 12.3823 17.7402 12.0676 18.1707 11.8028C18.6027 11.523 19.0292 11.2956 19.45 11.1208C19.2387 10.7568 18.9859 10.4262 18.6916 10.1291C18.3973 9.83205 18.08 9.60835 17.7395 9.45804C17.3991 9.30772 17.0566 9.2482 16.7119 9.27948C16.3672 9.31077 16.0329 9.45695 15.709 9.71804C15.4516 9.92558 15.2651 10.1787 15.1496 10.4773C15.0357 10.7609 14.9828 11.0776 14.9908 11.4274C15.0071 11.7705 15.0626 12.1368 15.1573 12.5263L14.4856 12.6362C14.3351 12.0587 14.2766 11.5442 14.3098 11.0926C14.3431 10.6411 14.4458 10.25 14.6178 9.91955C14.7981 9.58237 15.0211 9.30666 15.2869 9.09243C15.6439 8.80456 16.0156 8.62825 16.4018 8.56349C16.7814 8.49044 17.1588 8.50818 17.534 8.61671C17.9025 8.71695 18.2563 8.88387 18.5954 9.11748C18.9277 9.34279 19.2244 9.61738 19.4855 9.94124C19.6261 10.1156 19.7501 10.3034 19.8575 10.5046C19.9664 10.6907 20.0563 10.8786 20.127 11.0683C20.2059 11.2512 20.2674 11.4209 20.3113 11.5774C19.8289 11.7607 19.3657 11.9765 18.9219 12.2248C18.478 12.473 18.0876 12.7535 17.7506 13.0663C17.4152 13.364 17.1641 13.6898 16.9971 14.0436C16.8302 14.3974 16.775 14.7708 16.8314 15.1637C16.8812 15.5483 17.0768 15.9524 17.4182 16.3759C17.6592 16.6749 17.9753 17.016 18.3666 17.3994C18.7728 17.7843 19.2199 18.1774 19.7079 18.5788C20.2025 18.9884 20.7063 19.3838 21.2191 19.765L20.769 20.3539Z" fill="white"/>
<path d="M24.6018 11.1058C24.1366 11.262 23.6999 11.3186 23.2917 11.2756C22.8902 11.2191 22.539 11.0613 22.2383 10.8023C21.9375 10.5432 21.7073 10.176 21.5478 9.70073C21.3373 9.07379 21.324 8.39751 21.508 7.6719C21.6886 6.93617 22.0342 6.10564 22.5449 5.18032L22.7885 5.50361L21.6643 5.0709L21.9309 4.35691C22.6095 4.60169 23.2459 4.88872 23.8403 5.21801C24.4448 5.5439 24.965 5.92057 25.4011 6.34802C25.8371 6.77547 26.1451 7.25716 26.325 7.79309C26.4099 8.0459 26.4544 8.32914 26.4584 8.64283C26.4726 8.95313 26.421 9.26862 26.3036 9.58932C26.1963 9.90662 26.0081 10.2005 25.7388 10.4709C25.4662 10.7312 25.0871 10.9429 24.6018 11.1058ZM24.3675 10.4081C24.8023 10.2621 25.1291 10.0624 25.3478 9.80894C25.5732 9.54198 25.7126 9.25328 25.7659 8.94284C25.8158 8.62229 25.7881 8.30527 25.6829 7.9918C25.5709 7.6581 25.3864 7.34312 25.1294 7.04684C24.869 6.74044 24.5378 6.45781 24.1358 6.19895C23.744 5.93669 23.2814 5.69819 22.748 5.48346L23.1222 5.39158C22.8466 5.8779 22.6183 6.354 22.4371 6.81988C22.256 7.28575 22.1372 7.73632 22.0808 8.17157C22.0311 8.59332 22.0725 9.00137 22.2049 9.39574C22.3712 9.89123 22.6418 10.228 23.0166 10.4059C23.4015 10.5805 23.8518 10.5812 24.3675 10.4081ZM22.761 2.15418C22.6094 2.2051 22.4609 2.19867 22.3158 2.1349C22.1807 2.06772 22.0877 1.9583 22.0368 1.80662C21.9892 1.66505 21.9991 1.52673 22.0662 1.39166C22.1401 1.24309 22.2529 1.14334 22.4046 1.09242C22.5563 1.04149 22.7013 1.05467 22.8398 1.13196C22.9749 1.19913 23.0662 1.3035 23.1137 1.44507C23.1646 1.59675 23.1514 1.74182 23.0742 1.88028C23.007 2.01535 22.9026 2.10665 22.761 2.15418ZM20.9864 2.74997C20.8347 2.80089 20.6863 2.79447 20.5411 2.73069C20.406 2.66352 20.313 2.55409 20.2621 2.40241C20.2146 2.26084 20.2244 2.12252 20.2916 1.98746C20.3655 1.83888 20.4783 1.73913 20.6299 1.68821C20.7715 1.64068 20.9115 1.65556 21.05 1.73284C21.1952 1.79662 21.2915 1.89929 21.339 2.04086C21.39 2.19254 21.3768 2.33761 21.2995 2.47608C21.2323 2.61114 21.128 2.70244 20.9864 2.74997Z" fill="white"/>
</svg>
